<?xml version="1.0" standalone="no"?>
<!DOCTYPE svg PUBLIC "-//W3C//DTD SVG 20010904//EN"
 "http://www.w3.org/TR/2001/REC-SVG-20010904/DTD/svg10.dtd">
<svg version="1.0" xmlns="http://www.w3.org/2000/svg"
 width="396.000000pt" height="396.000000pt" viewBox="0 0 396.000000 396.000000"
 preserveAspectRatio="xMidYMid meet">
<metadata>
Created by potrace 1.11, written by Peter Selinger 2001-2013
</metadata>
<g transform="translate(0.000000,396.000000) scale(0.100000,-0.100000)"
fill="#000000" stroke="none">
<path d="M704 3593 c-35 -38 -29 -77 30 -192 25 -49 46 -96 46 -103 0 -8 -16
-29 -35 -48 -67 -65 -65 -44 -65 -607 0 -470 2 -511 19 -548 31 -68 71 -96
247 -175 198 -87 230 -93 328 -56 145 55 166 80 225 277 23 74 49 145 59 159
18 24 192 123 201 115 6 -6 3 -363 -3 -402 -8 -49 -53 -130 -95 -171 -25 -24
-116 -76 -257 -146 -121 -61 -239 -123 -264 -139 -115 -75 -216 -229 -235
-359 -12 -77 -12 -188 -1 -189 6 -1 494 -2 1084 -3 1069 -1 1072 -1 1073 19 0
11 1 326 1 700 0 754 -3 800 -61 983 -38 116 -122 291 -158 330 -7 7 -13 16
-13 20 0 4 -14 23 -30 42 -16 19 -30 38 -30 41 0 3 -39 44 -87 92 -205 203
-405 308 -713 373 -19 4 -306 9 -637 11 l-603 4 -26 -28z m401 -649 c64 -42
79 -132 33 -197 -45 -63 -147 -69 -203 -13 -41 41 -47 122 -13 172 41 59 124
77 183 38z"/>
<path d="M741 774 c-53 -22 -63 -58 -59 -220 3 -142 3 -144 31 -171 l27 -28
1240 0 1240 0 27 28 c27 27 28 30 31 163 2 75 1 146 -2 158 -7 28 -34 60 -61
71 -11 5 -566 9 -1233 10 -939 1 -1219 -2 -1241 -11z"/>
</g>
</svg>
