<svg width="12" height="15" viewBox="0 0 12 15" fill="none" xmlns="http://www.w3.org/2000/svg">
<path d="M0.59375 7.51469L1.86344 8.07906C1.98549 8.13331 2.11716 8.16256 2.2507 8.16508C2.38424 8.1676 2.51693 8.14335 2.64094 8.09375L3.04031 7.93375C3.1799 7.87791 3.3051 7.79131 3.4066 7.68039C3.5081 7.56948 3.58329 7.43711 3.62656 7.29313L3.91469 6.33531C3.94091 6.23033 3.98954 6.13226 4.05723 6.04784C4.12493 5.96342 4.21009 5.89465 4.30688 5.84625L4.99813 5.5V7.07281C4.99818 7.35141 4.92065 7.62451 4.77421 7.86152C4.62778 8.09853 4.41823 8.29007 4.16906 8.41469L2.38094 9.31C1.96584 9.51779 1.61679 9.83705 1.37289 10.232C1.12899 10.627 0.999871 11.082 1 11.5463V12H10.9956V6C10.9956 2.6875 8.31062 0 4.99813 0H0.375C0.275544 0 0.180161 0.0395088 0.109835 0.109835C0.0395087 0.180161 -1.28965e-07 0.275544 -1.28965e-07 0.375C-5.10081e-05 0.457237 0.0191034 0.538349 0.0559374 0.611875L0.5 1.5L0.21875 1.78125C0.149162 1.85108 0.0940242 1.93394 0.056489 2.0251C0.0189538 2.11626 -0.000241874 2.21392 -1.28965e-07 2.3125V6.60031C-0.000118746 6.79383 0.0559157 6.98323 0.161307 7.14553C0.266699 7.30783 0.416919 7.43607 0.59375 7.51469ZM1.625 3C1.74861 3 1.86945 3.03666 1.97223 3.10533C2.07501 3.17401 2.15512 3.27162 2.20242 3.38582C2.24973 3.50003 2.26211 3.62569 2.23799 3.74693C2.21387 3.86817 2.15435 3.97953 2.06694 4.06694C1.97953 4.15435 1.86817 4.21388 1.74693 4.23799C1.62569 4.26211 1.50003 4.24973 1.38582 4.20242C1.27162 4.15512 1.17401 4.07501 1.10533 3.97223C1.03666 3.86945 1 3.74861 1 3.625C1 3.45924 1.06585 3.30027 1.18306 3.18306C1.30027 3.06585 1.45924 3 1.625 3ZM11.5 13H0.5C0.367392 13 0.240215 13.0527 0.146446 13.1464C0.0526783 13.2402 -1.28965e-07 13.3674 -1.28965e-07 13.5V14.5C-1.28965e-07 14.6326 0.0526783 14.7598 0.146446 14.8536C0.240215 14.9473 0.367392 15 0.5 15H11.5C11.6326 15 11.7598 14.9473 11.8536 14.8536C11.9473 14.7598 12 14.6326 12 14.5V13.5C12 13.3674 11.9473 13.2402 11.8536 13.1464C11.7598 13.0527 11.6326 13 11.5 13Z" fill="#EC0000"/>
</svg>
