<svg width="12" height="15" viewBox="0 0 12 15" fill="none" xmlns="http://www.w3.org/2000/svg">
<path d="M0.593752 7.51469L1.86344 8.07906C1.98549 8.13331 2.11717 8.16256 2.2507 8.16508C2.38424 8.1676 2.51693 8.14335 2.64094 8.09375L3.04031 7.93375C3.17991 7.87791 3.30511 7.79131 3.40661 7.68039C3.50811 7.56948 3.58329 7.43711 3.62656 7.29313L3.91469 6.33531C3.94091 6.23033 3.98954 6.13226 4.05724 6.04784C4.12493 5.96342 4.2101 5.89465 4.30688 5.84625L4.99813 5.5V7.07281C4.99818 7.35141 4.92065 7.62451 4.77421 7.86152C4.62778 8.09853 4.41824 8.29007 4.16906 8.41469L2.38094 9.31C1.96584 9.51779 1.61679 9.83705 1.37289 10.232C1.12899 10.627 0.999873 11.082 1 11.5463V12H10.9956V6C10.9956 2.6875 8.31063 0 4.99813 0H0.375002C0.275546 0 0.180163 0.0395088 0.109837 0.109835C0.0395111 0.180161 2.25522e-06 0.275544 2.25522e-06 0.375C-4.8624e-05 0.457237 0.0191058 0.538349 0.0559398 0.611875L0.500002 1.5L0.218752 1.78125C0.149165 1.85108 0.0940266 1.93394 0.0564914 2.0251C0.0189562 2.11626 -0.00023949 2.21392 2.25522e-06 2.3125V6.60031C-0.000116362 6.79383 0.0559181 6.98323 0.16131 7.14553C0.266701 7.30783 0.416922 7.43607 0.593752 7.51469V7.51469ZM1.625 3C1.74862 3 1.86945 3.03666 1.97223 3.10533C2.07501 3.17401 2.15512 3.27162 2.20243 3.38582C2.24973 3.50003 2.26211 3.62569 2.23799 3.74693C2.21388 3.86817 2.15435 3.97953 2.06694 4.06694C1.97954 4.15435 1.86817 4.21388 1.74693 4.23799C1.6257 4.26211 1.50003 4.24973 1.38583 4.20242C1.27162 4.15512 1.17401 4.07501 1.10533 3.97223C1.03666 3.86945 1 3.74861 1 3.625C1 3.45924 1.06585 3.30027 1.18306 3.18306C1.30027 3.06585 1.45924 3 1.625 3V3ZM11.5 13H0.500002C0.367394 13 0.240217 13.0527 0.146449 13.1464C0.0526807 13.2402 2.25522e-06 13.3674 2.25522e-06 13.5V14.5C2.25522e-06 14.6326 0.0526807 14.7598 0.146449 14.8536C0.240217 14.9473 0.367394 15 0.500002 15H11.5C11.6326 15 11.7598 14.9473 11.8536 14.8536C11.9473 14.7598 12 14.6326 12 14.5V13.5C12 13.3674 11.9473 13.2402 11.8536 13.1464C11.7598 13.0527 11.6326 13 11.5 13Z" fill="white"/>
</svg>
